<?xml version="1.0" encoding="UTF-8"?>
<!DOCTYPE svg PUBLIC "-//W3C//DTD SVG 1.1//EN" "http://www.w3.org/Graphics/SVG/1.1/DTD/svg11.dtd">
<!-- Creator: CorelDRAW 2020 (64-Bit) -->
<svg xmlns="http://www.w3.org/2000/svg" xml:space="preserve" width="3.43162in" height="1.01907in" version="1.1" style="shape-rendering:geometricPrecision; text-rendering:geometricPrecision; image-rendering:optimizeQuality; fill-rule:evenodd; clip-rule:evenodd"
viewBox="0 0 1145.46 340.16"
 xmlns:xlink="http://www.w3.org/1999/xlink"
 xmlns:xodm="http://www.corel.com/coreldraw/odm/2003">
 <defs>
  <style type="text/css">
   <![CDATA[
    .fil0 {fill:#B8E68C}
    .fil2 {fill:#1C1C1C}
    .fil1 {fill:#FEFEFE}
   ]]>
  </style>
 </defs>
 <g id="Layer_x0020_1">
  <metadata id="CorelCorpID_0Corel-Layer"/>
  <g id="_2797250358208">
   <path class="fil0" d="M511.42 113.58c3.31,2.23 29.4,78.82 30.77,82.56l-60.08 0.06 -0.54 -0.61c4.48,-12.36 25.22,-75.98 29.86,-82.01zm-64.93 82.24l-27.42 75.47c5.71,2.15 15.02,1.14 21.86,1.19 9.68,0.08 8.86,-1.29 11.69,-9.92 7.3,-22.31 9.41,-35.76 28.05,-38 6.27,-0.75 15.25,-0.19 21.81,-0.18 11.73,0.01 32.78,-1.19 43.44,0.72 19.26,2.9 15.18,18.17 23.23,39.27l4.76 8.23 62.63 0.09 0.46 -1.42 2.63 -91.98c0.6,-5.71 6.17,-14.75 12.31,-17.46 7.48,-3.3 18.02,-4.27 26.32,-2.97 10.24,1.59 13.07,-0.58 20.8,8.93 4.43,5.46 5.11,17.76 5.11,24.89l1.53 79.22 1.32 0.76 104.26 -0.07 0.52 -1.1 1.49 -85.5c-0.09,-31.6 42.88,-36.45 59.29,-15.51 5.47,6.98 6.13,78.93 4.83,91.3 0.79,2.59 -0.31,7.96 0.97,9.9 1.66,2.52 7.28,1.33 10.07,1.34 5.57,0.02 16.42,1.52 20.38,-1.9 0,-24.67 -0.17,-49.39 0,-74.05 0.18,-26.39 6.23,-39.36 35.19,-38.67 29.97,0.71 30.28,18.4 30.19,43.77 -0.03,9.39 -1.73,67.29 0.01,71.1 3.03,1.41 10.2,0.81 14.01,0.8 2.41,-0 4.81,0 7.22,0 2.73,-0 4.9,0.44 7.22,0.48l2.97 -45.8 -1.97 -58.86 -1.42 -7.96c-12.38,-20.04 -22.53,-30.4 -47.97,-30.52 -11.17,-0.05 -21.75,2.17 -31.45,7.81 -6.33,3.68 -17.51,18.85 -19.63,18.37 -0.25,-0.19 -6.77,-11.4 -10.64,-14.76 -3.96,-3.45 -11.34,-7.4 -16.37,-9.17 -8,-2.82 -14.53,-2.5 -22.98,-2.43 -8.53,0.07 -17.09,4.33 -20.8,4.22l-15.62 11.94c-0.21,2.07 -4.55,10.75 -6.77,9.24 -2.14,-1.52 -0.47,-5.9 -0.19,-8.07 0.41,-3.13 0.56,-24.76 -1.98,-25.95 -1.65,-0.77 -12.59,5.51 -13.12,5.7 -1.54,0.54 -2.41,0.14 -3.88,0.89 -1.23,0.63 -1.05,1.19 -2.76,1.86 -1.17,0.46 -2.4,0.52 -3.51,1.14 -1.35,0.76 -1.14,1.42 -2.69,1.91l-0.56 102.85 -1.22 0.1 -5.44 -81.56c-1.27,-0.56 -0.81,-0.13 -1.25,-2.24 -0.12,-0.57 -0.32,-1.98 -0.38,-2.54 -0.21,-2.04 -0.08,-4.19 -0.23,-6.24 -1.06,-14.83 4.38,-11.39 -26.17,-11.93 -3.56,-0.06 -3.91,0.4 -6.78,1.71l0 42.53c1.3,2.88 0.8,17.31 0.86,21.53 0.05,3.58 0.08,7.31 -0.2,10.86l-0.36 8.11c-0.28,1.49 -0.2,1.13 -0.74,1.96 -10.24,-18.75 13.74,-59.8 -34.03,-84.95 -6.18,-3.25 -11.27,-2.38 -17.8,-3.31 -2.86,-0.41 -17.41,-0.12 -19.72,0.52 -13.69,3.77 -19.88,11.18 -29.91,21.38 -0.46,2.05 -0.41,3.04 -2.13,4.46 -1.66,-1.2 -1.45,-2.03 -1.35,-4.04l0.48 -8.92 -1.03 -19.3c-1.34,-1.15 -27.74,3.89 -27.45,14.57 0.39,14.42 0.05,29.31 0.06,43.79 0,8.98 1.62,83.37 -1.27,84.75l-6.33 -17.24 -11.08 -28.69 -4.86 -13.16 -6.47 -16.93 -5 -11.97 -0.36 -0.44c-1.15,-1.11 -21.62,-52.99 -23.43,-58.44 -2.36,-7.1 -8.42,-23.21 -11.57,-29.6 -5,-10.17 -25.03,-5.74 -35.35,-5.74 -16.29,0 -12.03,7.87 -19.2,22.3 -3.69,7.42 -7.39,20.53 -11.37,29.33 -3.23,7.15 -20.62,56.49 -23.72,58.18z"/>
   <path class="fil1" d="M71.79 238.46l6.53 -4.61c3.54,-1.06 24.44,-12.23 31.79,-15.17 12.85,-5.13 23.48,-8.25 36.89,-11.52 30.23,-7.38 57.14,-6.62 87.48,-2.44l20.19 3.14 0.16 -0.89c2.5,-5.94 -33.05,-19.9 -39.11,-22.15 -6.82,-2.54 -15.58,-7.39 -22.24,-8.77 -3.16,-0.66 -23.72,-5.27 -24.18,-6.56l-31.29 -4.81 -0.01 -5.38c0.68,-2.99 4.84,-8.23 6.28,-10.95 0.68,-1.28 0.47,-1.99 1.1,-3.2 5.41,-8.84 47.93,-79.28 47.94,-79.29 33.38,56.64 67.59,111.73 100.85,168.43 -4.39,1.5 -36.17,-13.32 -44.28,-15.15 -32.3,-7.27 -77.2,-8.08 -108.99,1.02 -11.48,3.29 -33.25,11.24 -43.58,16.84 -0.86,1.92 -25.87,15.98 -30.08,19.04 -9.47,6.88 -18.36,14.79 -26.67,23.02 -8.39,8.3 -42.44,47.61 -40.46,57.8 0,-0 44.12,-32.12 51.42,-36.2 43.67,-24.42 53.63,-21.76 96.06,-33.47 8.16,-2.25 29.11,-3.9 38.18,-3.86 14.26,0.07 26.81,1.85 39.92,2.12 48.27,1.01 163.43,45.5 167.44,74.73l3.65 0 -201.05 -340.16 -2.84 0.04 -152.92 257.09 1.97 1.64 29.89 -20.31z"/>
   <path class="fil0" d="M1112.73 227.85c-4.73,25.64 -62.07,37.51 -73.32,-6.8 -3.84,-7.97 -0.44,-39.35 3.81,-45.41 12.1,-17.24 44.72,-22.71 59.15,-10.76 17.93,14.83 14.03,43.04 10.35,62.98zm-100.99 6.04l0.37 0.13 21.13 29.34c27.9,16.7 72.58,18.51 95.07,-8.58 21.4,-25.77 22.9,-69.61 3.82,-97.1 -20.04,-28.86 -63.64,-33.21 -92.84,-16.63 -36.24,20.58 -32.19,58.35 -27.55,92.84z"/>
   <path class="fil0" d="M770.68 114.96c1.44,-3.65 -0.01,-2.63 -0.07,-5.76 -0.05,-2.29 0.02,-4.88 0,-7.23 -0.1,-18.16 0.57,-15.42 -6.3,-13.33 -3.73,1.14 -2.14,0.99 -4.88,2.3 -2.14,1.03 -2.76,0.3 -5.39,1.85 -7.94,4.69 -12.74,1.68 -12.42,9.15 0.1,2.42 -0.63,12.09 1.11,13.27 1.97,1.33 25.28,0.81 27.94,-0.25z"/>
   <polygon class="fil0" points="704.17,192.68 706.3,274.63 810.75,274.7 813.3,186 811.8,271.5 811.29,272.6 707.03,272.67 705.71,271.91 "/>
   <path class="fil0" d="M739.84 134.28c2.87,-1.31 3.22,-1.77 6.78,-1.71 30.55,0.54 25.12,-2.9 26.17,11.93 0.15,2.05 0.03,4.2 0.23,6.24 0.06,0.56 0.26,1.97 0.38,2.54 0.44,2.11 -0.02,1.69 1.25,2.24 -0.01,-3.78 -0.85,-8.94 -0.86,-12.79 -0.01,-2.1 0.17,-4.76 -0.02,-6.79 -0.32,-3.4 -1.52,-2.99 1.3,-4.61 -3.36,-0.32 -6.25,-2.07 -8.91,-2.2 -2.91,-0.15 -7.78,-0.23 -10.43,-0.61 -5.06,-0.73 -15.27,-0.99 -15.89,5.75z"/>
   <path class="fil0" d="M1002.67 274.56c-2.32,-0.03 -4.49,-0.48 -7.22,-0.48 -2.41,0 -4.81,-0.01 -7.22,-0 -3.81,0 -10.98,0.61 -14.01,-0.8 2.4,4.91 3.99,3.58 13.59,3.63 2.07,0.01 11.49,-0.18 13.53,-1.33 1.48,-0.84 0.36,-0.01 1.33,-1.02z"/>
   <path class="fil0" d="M634.46 153.34c-0.1,2.01 -0.31,2.84 1.35,4.04 1.72,-1.43 1.67,-2.42 2.13,-4.46l-3.47 0.42z"/>
   <path class="fil2" d="M105.91 226.37c1.07,0.68 0.65,0.65 1.77,0 -1.12,-0.65 -0.7,-0.68 -1.77,0z"/>
   <polygon class="fil0" points="706.3,274.63 810.75,274.7 "/>
  </g>
 </g>
</svg>
